<svg width="400" height="399" viewBox="0 0 400 399" fill="none" xmlns="http://www.w3.org/2000/svg">
<g clip-path="url(#clip0_2729_23028)">
<path opacity="0.3" d="M199.949 398.984C310.112 398.984 399.416 309.718 399.416 199.604C399.416 89.4904 310.112 0.225403 199.949 0.225403C89.7861 0.225403 0.481445 89.4904 0.481445 199.604C0.481445 309.718 89.7861 398.984 199.949 398.984Z" fill="url(#paint0_radial_2729_23028)"/>
<path d="M64.7861 223.687C59.6508 226.584 56.4586 232.007 56.418 237.901L55.9818 301.113C55.9412 307.008 59.0583 312.474 64.1533 315.443L119.202 347.513C124.255 350.458 130.491 350.501 135.584 347.626L191.073 316.311C196.207 313.413 199.399 307.992 199.44 302.098L199.882 238.885C199.923 232.99 196.807 227.524 191.711 224.555L136.662 192.484C131.61 189.541 125.374 189.497 120.281 192.371L64.7861 223.687Z" fill="url(#paint1_linear_2729_23028)" stroke="#00B775" stroke-width="3" stroke-linecap="round" stroke-linejoin="round"/>
<mask id="mask0_2729_23028" style="mask-type:luminance" maskUnits="userSpaceOnUse" x="46" y="37" width="326" height="327">
<path d="M371.966 37.1805H46.8628V363.785H371.966V37.1805Z" fill="white"/>
</mask>
<g mask="url(#mask0_2729_23028)">
<path d="M222.739 234.011C222.739 231.512 224.074 229.203 226.24 227.954L289.531 191.471C291.694 190.224 294.359 190.224 296.521 191.471L359.813 227.954C361.979 229.203 363.313 231.512 363.313 234.011V306.962C363.313 309.461 361.979 311.77 359.813 313.019L296.521 349.503C294.359 350.749 291.694 350.749 289.531 349.503L226.24 313.019C224.074 311.77 222.739 309.461 222.739 306.962V234.011Z" fill="url(#paint2_linear_2729_23028)" stroke="#00BEB4" stroke-width="3"/>
<path d="M139.055 93.6976C139.055 91.1983 140.389 88.889 142.555 87.6402L205.847 51.15C208.01 49.9031 210.674 49.9028 212.837 51.1495L276.128 87.6254C278.294 88.8742 279.629 91.1835 279.629 93.6828L279.637 166.632C279.637 169.132 278.302 171.442 276.136 172.691L212.844 209.18C210.681 210.428 208.018 210.429 205.855 209.181L142.556 172.705C140.39 171.456 139.055 169.147 139.055 166.647V93.6976Z" fill="url(#paint3_linear_2729_23028)" stroke="#369846" stroke-width="3"/>
<path d="M209.862 223.158V306.641C209.862 312.521 213 317.954 218.095 320.892L290.47 362.639" stroke="#0DB9B2" stroke-width="3" stroke-linecap="round" stroke-linejoin="round"/>
<path d="M209.67 223.15L282.045 181.411C287.14 178.472 290.279 173.039 290.279 167.159V83.6765" stroke="#369846" stroke-width="3" stroke-linecap="round" stroke-linejoin="round"/>
<path d="M209.273 223.127L137.177 180.881C132.108 177.91 125.838 177.867 120.728 180.767L48.0103 222.02" stroke="#00B775" stroke-width="3" stroke-linecap="round" stroke-linejoin="round"/>
</g>
<path d="M326.727 307.265C328.983 306.689 330.339 304.411 329.757 302.176C329.175 299.943 326.876 298.599 324.62 299.176C322.365 299.753 321.009 302.031 321.591 304.264C322.173 306.498 324.473 307.841 326.727 307.265Z" fill="url(#paint4_linear_2729_23028)"/>
<path d="M325.231 240.267C322.905 240.267 321.014 238.395 321.014 236.09C321.014 233.786 322.905 231.914 325.231 231.914C327.557 231.914 329.448 233.786 329.448 236.09C329.448 238.395 327.557 240.267 325.231 240.267Z" fill="url(#paint5_linear_2729_23028)"/>
<path d="M261.272 240.298C263.601 240.298 265.489 238.428 265.489 236.122C265.489 233.815 263.601 231.944 261.272 231.944C258.943 231.944 257.055 233.815 257.055 236.122C257.055 238.428 258.943 240.298 261.272 240.298Z" fill="url(#paint6_linear_2729_23028)"/>
<path d="M260.676 307.811C258.35 307.811 256.46 305.938 256.46 303.634C256.46 301.33 258.35 299.457 260.676 299.457C263.002 299.457 264.893 301.33 264.893 303.634C264.893 305.938 263.002 307.811 260.676 307.811Z" fill="url(#paint7_linear_2729_23028)"/>
<path d="M326.324 284.021L313.888 271.702C313.701 271.517 313.444 271.413 313.18 271.413H301.677C301.98 270.623 302.171 269.791 302.241 268.932H312.74C313.005 268.932 313.262 268.827 313.449 268.643L325.885 256.324C326.072 256.139 326.176 255.885 326.176 255.622V240.29C326.176 240.244 326.169 240.202 326.165 240.159C325.861 240.229 325.55 240.267 325.227 240.267C324.869 240.267 324.523 240.217 324.193 240.136C324.184 240.186 324.177 240.241 324.177 240.294V255.214L312.324 266.955H302.167C302.113 266.566 302.035 266.188 301.93 265.818L313.168 254.686C313.355 254.501 313.46 254.247 313.46 253.985V235.84C313.46 235.578 313.355 235.324 313.168 235.139L301.98 224.049C301.592 223.664 300.957 223.664 300.565 224.049C300.175 224.435 300.175 225.062 300.565 225.451L311.464 236.248V253.569L301.113 263.822C300.261 262.32 298.993 261.078 297.46 260.266L298.476 258.652C298.624 258.42 298.608 258.119 298.44 257.904L296.231 255.018C296.009 254.729 295.589 254.671 295.298 254.89C295.006 255.11 294.947 255.526 295.17 255.815L297.103 258.339L296.223 259.73C295.267 259.391 294.244 259.199 293.17 259.199C292.096 259.199 291.135 259.38 290.206 259.7L289.33 258.336L291.26 255.815C291.482 255.526 291.427 255.11 291.132 254.89C290.84 254.671 290.42 254.729 290.198 255.018L287.989 257.904C287.821 258.123 287.806 258.424 287.957 258.659L288.965 260.227C287.412 261.032 286.129 262.266 285.262 263.772L274.965 253.569V236.248L285.864 225.451C286.254 225.066 286.254 224.439 285.864 224.049C285.476 223.664 284.841 223.664 284.449 224.049L273.257 235.135C273.07 235.32 272.965 235.575 272.965 235.836V253.977C272.965 254.239 273.07 254.494 273.257 254.679L284.425 265.745C284.312 266.138 284.226 266.539 284.168 266.951H274.101L262.249 255.21V240.29C262.249 240.252 262.24 240.217 262.236 240.182C261.925 240.256 261.603 240.298 261.268 240.298C260.933 240.298 260.584 240.252 260.26 240.171C260.257 240.21 260.249 240.248 260.249 240.29V255.622C260.249 255.885 260.354 256.139 260.541 256.324L272.977 268.643C273.164 268.827 273.421 268.932 273.685 268.932H284.098C284.165 269.787 284.355 270.619 284.663 271.413H273.245C272.981 271.413 272.724 271.517 272.537 271.702L260.101 284.021C259.914 284.206 259.809 284.46 259.809 284.722V299.549C260.089 299.492 260.377 299.461 260.677 299.461C261.069 299.461 261.451 299.519 261.812 299.619V285.134L273.665 273.397H284.697C283.176 274.546 281.928 275.979 281.002 277.598C280.97 277.621 280.936 277.632 280.909 277.66L272.825 285.666C272.639 285.851 272.533 286.105 272.533 286.368V304.509C272.533 304.771 272.639 305.025 272.825 305.209L284.016 316.296C284.211 316.488 284.468 316.585 284.724 316.585C284.981 316.585 285.238 316.488 285.433 316.296C285.821 315.91 285.821 315.282 285.433 314.893L274.533 304.096V286.776L279.399 281.956C279.248 282.768 279.17 283.597 279.17 284.441C279.17 292.093 285.452 298.316 293.178 298.316C300.903 298.316 307.185 292.093 307.185 284.441C307.185 283.562 307.1 282.699 306.937 281.852L311.908 286.776V304.096L301.008 314.893C300.619 315.278 300.619 315.907 301.008 316.296C301.203 316.488 301.459 316.585 301.716 316.585C301.973 316.585 302.23 316.488 302.424 316.296L313.616 305.209C313.803 305.025 313.907 304.771 313.907 304.509V286.368C313.907 286.105 313.803 285.851 313.616 285.666L305.533 277.66C305.462 277.59 305.38 277.548 305.299 277.505C304.377 275.925 303.147 274.523 301.658 273.397H312.775L324.628 285.134V299.176C324.966 299.087 325.32 299.037 325.69 299.037C326.013 299.037 326.328 299.076 326.631 299.145V284.722C326.631 284.46 326.527 284.206 326.34 284.021H326.324Z" fill="url(#paint8_linear_2729_23028)"/>
<path d="M293.699 287.601L295.83 284.873C295.986 284.672 296.013 284.402 295.9 284.179C295.788 283.951 295.558 283.809 295.301 283.809H291.038C290.785 283.809 290.551 283.951 290.439 284.179C290.326 284.406 290.353 284.676 290.509 284.873L292.64 287.601L290.509 290.329C290.353 290.529 290.326 290.799 290.439 291.022C290.551 291.249 290.781 291.393 291.038 291.393H295.301C295.554 291.393 295.788 291.249 295.9 291.022C296.013 290.795 295.986 290.525 295.83 290.329L293.699 287.601ZM293.944 285.13L293.169 286.121L292.396 285.13H293.944ZM292.396 290.075L293.169 289.084L293.944 290.075H292.396Z" fill="white"/>
<path d="M326.727 307.265C328.983 306.689 330.339 304.411 329.757 302.176C329.175 299.943 326.876 298.599 324.62 299.176C322.365 299.753 321.009 302.031 321.591 304.264C322.173 306.498 324.473 307.841 326.727 307.265Z" fill="white"/>
<path d="M325.231 240.267C322.905 240.267 321.014 238.395 321.014 236.09C321.014 233.786 322.905 231.914 325.231 231.914C327.557 231.914 329.448 233.786 329.448 236.09C329.448 238.395 327.557 240.267 325.231 240.267ZM325.231 233.894C324.01 233.894 323.014 234.88 323.014 236.09C323.014 237.3 324.01 238.287 325.231 238.287C326.453 238.287 327.449 237.3 327.449 236.09C327.449 234.88 326.453 233.894 325.231 233.894Z" fill="white"/>
<path d="M261.272 240.298C263.601 240.298 265.489 238.428 265.489 236.122C265.489 233.815 263.601 231.944 261.272 231.944C258.943 231.944 257.055 233.815 257.055 236.122C257.055 238.428 258.943 240.298 261.272 240.298Z" fill="white"/>
<path d="M260.676 307.811C258.35 307.811 256.46 305.938 256.46 303.634C256.46 301.33 258.35 299.457 260.676 299.457C263.002 299.457 264.893 301.33 264.893 303.634C264.893 305.938 263.002 307.811 260.676 307.811ZM260.676 301.437C259.455 301.437 258.459 302.424 258.459 303.634C258.459 304.844 259.455 305.831 260.676 305.831C261.898 305.831 262.894 304.844 262.894 303.634C262.894 302.424 261.898 301.437 260.676 301.437Z" fill="white"/>
<path d="M326.324 284.021L313.888 271.702C313.701 271.517 313.444 271.413 313.18 271.413H301.677C301.98 270.623 302.171 269.791 302.241 268.932H312.74C313.005 268.932 313.262 268.827 313.449 268.643L325.885 256.324C326.072 256.139 326.176 255.885 326.176 255.622V240.29C326.176 240.244 326.169 240.202 326.165 240.159C325.861 240.229 325.55 240.267 325.227 240.267C324.869 240.267 324.523 240.217 324.193 240.136C324.184 240.186 324.177 240.241 324.177 240.294V255.214L312.324 266.955H302.167C302.113 266.566 302.035 266.188 301.93 265.818L313.168 254.686C313.355 254.501 313.46 254.247 313.46 253.985V235.84C313.46 235.578 313.355 235.324 313.168 235.139L301.98 224.049C301.592 223.664 300.957 223.664 300.565 224.049C300.175 224.435 300.175 225.062 300.565 225.451L311.464 236.248V253.569L301.113 263.822C300.261 262.32 298.993 261.078 297.46 260.266L298.476 258.652C298.624 258.42 298.608 258.119 298.44 257.904L296.231 255.018C296.009 254.729 295.589 254.671 295.298 254.89C295.006 255.11 294.947 255.526 295.17 255.815L297.103 258.339L296.223 259.73C295.267 259.391 294.244 259.199 293.17 259.199C292.096 259.199 291.135 259.38 290.206 259.7L289.33 258.336L291.26 255.815C291.482 255.526 291.427 255.11 291.132 254.89C290.84 254.671 290.42 254.729 290.198 255.018L287.989 257.904C287.821 258.123 287.806 258.424 287.957 258.659L288.965 260.227C287.412 261.032 286.129 262.266 285.262 263.772L274.965 253.569V236.248L285.864 225.451C286.254 225.066 286.254 224.439 285.864 224.049C285.476 223.664 284.841 223.664 284.449 224.049L273.257 235.135C273.07 235.32 272.965 235.575 272.965 235.836V253.977C272.965 254.239 273.07 254.494 273.257 254.679L284.425 265.745C284.312 266.138 284.226 266.539 284.168 266.951H274.101L262.249 255.21V240.29C262.249 240.252 262.24 240.217 262.236 240.182C261.925 240.256 261.603 240.298 261.268 240.298C260.933 240.298 260.584 240.252 260.26 240.171C260.257 240.21 260.249 240.248 260.249 240.29V255.622C260.249 255.885 260.354 256.139 260.541 256.324L272.977 268.643C273.164 268.827 273.421 268.932 273.685 268.932H284.098C284.165 269.787 284.355 270.619 284.663 271.413H273.245C272.981 271.413 272.724 271.517 272.537 271.702L260.101 284.021C259.914 284.206 259.809 284.46 259.809 284.722V299.549C260.089 299.492 260.377 299.461 260.677 299.461C261.069 299.461 261.451 299.519 261.812 299.619V285.134L273.665 273.397H284.697C283.176 274.546 281.928 275.979 281.002 277.598C280.97 277.621 280.936 277.632 280.909 277.66L272.825 285.666C272.639 285.851 272.533 286.105 272.533 286.368V304.509C272.533 304.771 272.639 305.025 272.825 305.209L284.016 316.296C284.211 316.488 284.468 316.585 284.724 316.585C284.981 316.585 285.238 316.488 285.433 316.296C285.821 315.91 285.821 315.282 285.433 314.893L274.533 304.096V286.776L279.399 281.956C279.248 282.768 279.17 283.597 279.17 284.441C279.17 292.093 285.452 298.316 293.178 298.316C300.903 298.316 307.185 292.093 307.185 284.441C307.185 283.562 307.1 282.699 306.937 281.852L311.908 286.776V304.096L301.008 314.893C300.619 315.278 300.619 315.907 301.008 316.296C301.203 316.488 301.459 316.585 301.716 316.585C301.973 316.585 302.23 316.488 302.424 316.296L313.616 305.209C313.803 305.025 313.907 304.771 313.907 304.509V286.368C313.907 286.105 313.803 285.851 313.616 285.666L305.533 277.66C305.462 277.59 305.38 277.548 305.299 277.505C304.377 275.925 303.147 274.523 301.658 273.397H312.775L324.628 285.134V299.176C324.966 299.087 325.32 299.037 325.69 299.037C326.013 299.037 326.328 299.076 326.631 299.145V284.722C326.631 284.46 326.527 284.206 326.34 284.021H326.324ZM305.178 284.437C305.178 290.995 299.79 296.332 293.17 296.332C286.549 296.332 281.161 290.995 281.161 284.437C281.161 280.137 283.519 276.161 287.311 274.056C287.568 273.914 287.747 273.667 287.806 273.386C287.863 273.101 287.79 272.808 287.607 272.577C286.607 271.324 286.078 269.826 286.071 268.238C286.101 268.145 286.121 268.046 286.121 267.941C286.121 267.864 286.109 267.795 286.094 267.722C286.351 264.073 289.424 261.179 293.17 261.179C296.916 261.179 300.269 264.335 300.269 268.215C300.269 269.81 299.736 271.321 298.733 272.577C298.55 272.804 298.48 273.101 298.534 273.386C298.593 273.671 298.771 273.918 299.028 274.056C302.821 276.161 305.178 280.141 305.178 284.437Z" fill="white"/>
<path d="M171.78 243.425L170.948 227.549C170.928 227.207 170.734 226.899 170.431 226.732C170.128 226.567 169.758 226.571 169.459 226.741L147.884 238.836C147.604 238.508 147.266 238.219 146.869 237.992C145.006 236.929 142.617 237.56 141.544 239.406C141.217 239.968 141.049 240.581 141.026 241.194L134.507 242.019H124.685L114.73 240.758L93.117 228.64C93.2182 227.835 93.0709 226.991 92.6314 226.232C91.5573 224.386 89.1647 223.754 87.3054 224.818C85.4421 225.881 84.8001 228.251 85.8783 230.093C86.3721 230.94 87.1458 231.522 88.0133 231.812L87.5664 240.342C86.4766 240.539 85.4816 241.186 84.8857 242.207C83.8124 244.053 84.4503 246.419 86.3137 247.482C86.9244 247.833 87.5976 247.999 88.2544 247.999C88.6668 247.999 89.0758 247.925 89.4643 247.802C89.4371 247.81 89.41 247.822 89.3787 247.833L96.9647 263.697L93.2067 279.865C93.1836 279.969 93.1795 280.073 93.191 280.177C93.1713 280.227 93.1524 280.277 93.1367 280.335L92.4133 283.475C92.3194 283.877 92.4873 284.292 92.833 284.52L111.848 297.073L120.989 315.234C121.16 315.569 121.506 315.781 121.884 315.781H129.278C129.388 315.781 129.492 315.758 129.589 315.727C129.687 315.758 129.792 315.781 129.901 315.781H137.296C137.673 315.781 138.023 315.569 138.19 315.234L147.332 297.073L166.347 284.52C166.692 284.292 166.86 283.877 166.766 283.475L166.043 280.335C166.031 280.281 166.012 280.227 165.989 280.177C165.996 280.077 165.996 279.973 165.973 279.868L162.981 266.995C163.612 266.668 164.16 266.171 164.538 265.519C165.059 264.625 165.198 263.585 164.927 262.587C164.716 261.816 164.281 261.142 163.677 260.637L171.683 243.899C171.753 243.749 171.789 243.587 171.777 243.421L171.78 243.425ZM90.2116 247.486C90.2116 247.486 90.2001 247.49 90.196 247.494C90.219 247.479 90.2429 247.463 90.2659 247.447C90.2462 247.459 90.2306 247.475 90.2116 247.486Z" fill="url(#paint9_linear_2729_23028)"/>
<path d="M144.913 245.197C144.251 245.197 143.582 245.032 142.971 244.681C141.108 243.618 140.47 241.248 141.544 239.406C142.617 237.56 145.006 236.929 146.869 237.992C148.732 239.055 149.37 241.425 148.297 243.267C147.577 244.504 146.263 245.197 144.913 245.197ZM144.924 239.456C144.267 239.456 143.629 239.795 143.275 240.396C142.75 241.294 143.065 242.446 143.971 242.966C144.877 243.483 146.04 243.174 146.565 242.277C147.087 241.379 146.776 240.227 145.869 239.707C145.57 239.537 145.243 239.456 144.924 239.456Z" fill="white"/>
<path d="M88.2544 248.007C87.5935 248.007 86.9244 247.841 86.3137 247.49C84.4503 246.422 83.8124 244.057 84.8857 242.211C85.9598 240.366 88.3483 239.733 90.2116 240.797C92.075 241.861 92.7129 244.23 91.6388 246.072C90.9194 247.309 89.6042 248.003 88.2544 248.003V248.007ZM88.2668 242.265C87.6092 242.265 86.9713 242.604 86.6174 243.206C86.0923 244.103 86.4067 245.255 87.3137 245.776C88.2199 246.292 89.3828 245.984 89.9079 245.086C90.4289 244.188 90.1178 243.035 89.2116 242.515C88.912 242.346 88.5853 242.265 88.2668 242.265Z" fill="white"/>
<path d="M161.157 267.45C160.496 267.45 159.827 267.284 159.216 266.933C158.314 266.418 157.668 265.585 157.399 264.587C157.131 263.589 157.267 262.549 157.789 261.654C158.862 259.809 161.25 259.177 163.114 260.24C164.017 260.757 164.662 261.589 164.93 262.587C165.199 263.585 165.063 264.626 164.542 265.519C163.822 266.757 162.507 267.45 161.157 267.45ZM161.169 261.709C160.511 261.709 159.873 262.048 159.52 262.649C159.267 263.084 159.197 263.589 159.329 264.075C159.461 264.56 159.772 264.965 160.212 265.215C161.119 265.732 162.282 265.427 162.807 264.525C163.059 264.09 163.129 263.581 162.997 263.096C162.865 262.61 162.554 262.206 162.114 261.955C161.815 261.786 161.488 261.705 161.169 261.705V261.709Z" fill="white"/>
<path d="M141.027 241.19L134.507 242.014H124.685L114.73 240.755L93.117 228.64C93.0314 229.307 92.7788 229.95 92.3623 230.494L113.91 242.577C114.022 242.639 114.147 242.682 114.275 242.696L124.487 243.991C124.529 243.995 124.572 243.999 124.615 243.999H134.566C134.608 243.999 134.651 243.999 134.693 243.991L141.47 243.132C141.155 242.535 140.999 241.868 141.022 241.19H141.027Z" fill="white"/>
<path d="M92.6314 226.232C91.5573 224.386 89.1648 223.754 87.3055 224.818C85.4421 225.881 84.8002 228.251 85.8783 230.093C86.5977 231.329 87.9129 232.023 89.2627 232.023C89.9236 232.023 90.5927 231.858 91.2034 231.507C93.0668 230.443 93.7047 228.073 92.6314 226.232Z" fill="white"/>
<path d="M89.5623 240.504L90.0092 231.942C89.7606 231.993 89.5113 232.023 89.2627 232.023C88.8347 232.023 88.4141 231.947 88.0133 231.812L87.5664 240.346C88.2397 240.227 88.9277 240.284 89.5623 240.504Z" fill="white"/>
<path d="M156.407 247.698C154.544 246.635 152.155 247.266 151.082 249.113C150.008 250.958 150.646 253.324 152.509 254.388C153.12 254.738 153.793 254.903 154.451 254.903C155.801 254.903 157.111 254.21 157.834 252.973C158.908 251.127 158.271 248.762 156.407 247.698Z" fill="white"/>
<path d="M159.551 260.079L156.263 254.461C155.855 254.672 155.419 254.815 154.964 254.873L158.446 260.826C158.773 260.51 159.146 260.26 159.551 260.079Z" fill="white"/>
<path d="M170.948 227.549C170.928 227.207 170.734 226.899 170.43 226.732C170.127 226.567 169.758 226.571 169.458 226.741L147.884 238.836C148.327 239.352 148.624 239.973 148.748 240.627L168.35 229.638L155.765 247.41C155.987 247.486 156.201 247.582 156.411 247.702C156.598 247.81 156.769 247.934 156.932 248.064L169.123 230.852L169.773 243.282L161.876 259.798C162.3 259.874 162.721 260.02 163.118 260.244C163.32 260.36 163.506 260.498 163.681 260.645L171.687 243.902C171.757 243.753 171.792 243.591 171.78 243.425L170.948 227.549Z" fill="white"/>
<path d="M166.77 283.479L166.047 280.339C166.035 280.285 166.016 280.231 165.992 280.181C166 280.081 166 279.977 165.977 279.873L162.985 266.999C162.421 267.292 161.795 267.45 161.161 267.45C161.118 267.45 161.079 267.442 161.036 267.442L164.028 280.316C164.039 280.369 164.059 280.42 164.082 280.47C164.075 280.57 164.075 280.674 164.098 280.778L164.67 283.252L146.009 295.575C145.866 295.671 145.749 295.802 145.667 295.956L136.681 313.804H129.904C129.796 313.804 129.69 313.827 129.593 313.858C129.496 313.827 129.391 313.804 129.282 313.804H122.506L113.52 295.956C113.442 295.802 113.326 295.671 113.178 295.575L94.5176 283.252L95.0896 280.778C95.1168 280.666 95.1168 280.551 95.1052 280.443C95.1201 280.401 95.148 280.362 95.1596 280.316L98.9991 263.812C98.9991 263.812 98.9991 263.793 98.9991 263.782L106.024 251.767C106.152 251.544 106.141 251.266 105.993 251.058L91.8336 231.06C91.6427 231.226 91.4328 231.376 91.2032 231.507C91.0361 231.603 90.8649 231.68 90.6937 231.75L104.658 251.47L98.427 262.125L91.0904 246.781C90.8336 247.051 90.5456 247.298 90.2155 247.49C89.9464 247.644 89.6707 247.756 89.3867 247.841L96.9719 263.704L93.2147 279.873C93.1908 279.977 93.1867 280.081 93.1991 280.185C93.1793 280.235 93.1596 280.285 93.1439 280.343L92.4205 283.483C92.3275 283.884 92.4945 284.3 92.841 284.527L111.855 297.081L120.997 315.241C121.168 315.577 121.514 315.789 121.891 315.789H129.286C129.395 315.789 129.5 315.765 129.597 315.735C129.695 315.765 129.8 315.789 129.909 315.789H137.304C137.681 315.789 138.031 315.577 138.198 315.241L147.34 297.081L166.354 284.527C166.7 284.3 166.867 283.884 166.774 283.483L166.77 283.479Z" fill="white"/>
<path d="M111.027 282.982C111.186 283.283 111.49 283.479 111.828 283.51L120.666 284.25L119.569 294.669L111.677 287.791C111.599 287.722 111.506 287.676 111.404 287.649L94.6504 283.344L98.0306 285.58L110.914 288.889L122.739 299.197V304.599C122.739 304.903 122.883 305.192 123.124 305.381L128.823 309.77C129.007 309.909 129.221 309.978 129.438 309.978C129.489 309.978 129.539 309.97 129.586 309.963C129.636 309.97 129.683 309.978 129.734 309.978C129.948 309.978 130.166 309.909 130.348 309.77L136.047 305.381C136.292 305.192 136.432 304.903 136.432 304.599V299.197L148.258 288.889L161.142 285.58L164.522 283.344L147.768 287.649C147.667 287.676 147.573 287.722 147.496 287.791L139.603 294.669L138.51 284.25L147.348 283.51C147.69 283.479 147.989 283.283 148.149 282.982L151.892 275.927C152.063 275.607 152.039 275.222 151.841 274.922C151.638 274.621 151.3 274.451 150.927 274.482L142.201 275.187C141.964 275.206 141.743 275.307 141.575 275.472L137.183 279.822C137.101 279.904 137.043 279.996 136.993 280.096C136.856 280.231 136.771 280.42 136.794 280.624L138.381 295.736L135.549 298.207C135.51 298.203 135.475 298.194 135.436 298.194H129.816C129.738 298.194 129.66 298.207 129.59 298.222C129.516 298.207 129.442 298.194 129.364 298.194H123.743C123.705 298.194 123.665 298.203 123.631 298.207L120.799 295.74L122.394 280.593C122.417 280.369 122.315 280.17 122.156 280.031C122.114 279.957 122.063 279.884 122 279.822L117.608 275.472C117.441 275.307 117.22 275.206 116.982 275.187L108.257 274.482C107.884 274.455 107.542 274.621 107.343 274.922C107.141 275.222 107.121 275.607 107.292 275.927L111.031 282.982H111.027ZM142.734 277.129L149.285 276.597L146.644 281.58L139.043 282.216L138.929 280.898L142.734 277.129ZM124.747 300.176H129.368C129.446 300.176 129.524 300.164 129.594 300.148C129.668 300.164 129.742 300.176 129.819 300.176H134.441V304.11L129.594 307.844L124.747 304.11V300.176ZM116.454 277.129L120.258 280.898L120.145 282.216L112.544 281.58L109.903 276.597L116.45 277.129H116.454Z" fill="white"/>
<path d="M239.323 116.965C239.323 115.208 238.113 113.729 236.475 113.29V102.909C236.475 95.1101 230.979 88.5591 223.623 86.8528C223.355 85.0142 221.755 83.5967 219.826 83.5967C217.897 83.5967 216.298 85.0142 216.026 86.8561C208.67 88.5632 203.173 95.1142 203.173 102.912V105.144C201.536 105.583 200.326 107.059 200.326 108.816C200.326 110.916 202.053 112.627 204.173 112.627C204.173 112.627 204.181 112.627 204.185 112.627C204.224 115.29 204.289 120.052 204.325 122.437C204.274 122.43 204.224 122.421 204.173 122.421C203.62 122.421 203.173 122.865 203.173 123.412V130.151L196.607 136.651C196.043 136.332 195.393 136.143 194.697 136.143C192.577 136.143 190.85 137.854 190.85 139.954C190.85 140.644 191.037 141.287 191.364 141.846L185.093 148.057C179.907 153.194 178.869 160.908 181.973 167.085C181.249 167.778 180.798 168.746 180.798 169.817C180.798 171.916 182.525 173.628 184.645 173.628C185.478 173.628 186.244 173.362 186.874 172.914C189.741 175.053 193.215 176.213 196.867 176.213C201.313 176.213 205.495 174.498 208.643 171.381L211.922 168.133C212.498 168.476 213.17 168.676 213.89 168.676C216.01 168.676 217.737 166.965 217.737 164.865C217.737 164.152 217.535 163.486 217.189 162.915L228.24 151.968C231.387 148.855 233.118 144.713 233.118 140.305C233.118 140.289 233.118 140.274 233.118 140.258C235.313 137.38 236.48 133.97 236.48 130.355V120.634C238.117 120.194 239.327 118.719 239.327 116.958L239.323 116.965ZM223.673 87.4073C223.673 87.511 223.666 87.6196 223.658 87.7191C223.666 87.6155 223.673 87.511 223.673 87.4073ZM215.998 87.1029C215.991 87.2033 215.983 87.3037 215.983 87.4073C215.983 87.511 215.991 87.6081 215.998 87.7076C215.991 87.6081 215.983 87.5077 215.983 87.4073C215.983 87.307 215.991 87.2033 215.998 87.1029ZM203.69 105.044C203.671 105.044 203.652 105.051 203.629 105.051C203.648 105.051 203.667 105.044 203.69 105.044ZM197.043 136.941C197.043 136.941 197.027 136.929 197.02 136.925C197.027 136.929 197.035 136.937 197.043 136.941ZM191.659 142.274C191.659 142.274 191.648 142.258 191.643 142.25C191.648 142.258 191.655 142.266 191.659 142.274ZM187.267 172.607C187.267 172.607 187.275 172.598 187.283 172.595C187.279 172.598 187.275 172.602 187.267 172.607Z" fill="url(#paint10_linear_2729_23028)"/>
<path d="M239.323 116.965C239.323 115.208 238.113 113.729 236.475 113.29V102.909C236.475 95.1101 230.979 88.5591 223.623 86.8528C223.355 85.0142 221.755 83.5967 219.826 83.5967C217.897 83.5967 216.298 85.0142 216.026 86.8561C208.67 88.5632 203.173 95.1142 203.173 102.912V105.144C201.536 105.583 200.326 107.059 200.326 108.816C200.326 110.916 202.053 112.627 204.173 112.627C204.173 112.627 204.181 112.627 204.185 112.627C204.224 115.29 204.289 120.052 204.325 122.437C204.274 122.43 204.224 122.421 204.173 122.421C203.62 122.421 203.173 122.865 203.173 123.412V130.151L196.607 136.651C196.043 136.332 195.393 136.143 194.697 136.143C192.577 136.143 190.85 137.854 190.85 139.954C190.85 140.644 191.037 141.287 191.364 141.846L185.093 148.057C179.907 153.194 178.869 160.908 181.973 167.085C181.249 167.778 180.798 168.746 180.798 169.817C180.798 171.916 182.525 173.628 184.645 173.628C185.478 173.628 186.244 173.362 186.874 172.914C189.741 175.053 193.215 176.213 196.867 176.213C201.313 176.213 205.495 174.498 208.643 171.381L211.922 168.133C212.498 168.476 213.17 168.676 213.89 168.676C216.01 168.676 217.737 166.965 217.737 164.865C217.737 164.152 217.535 163.486 217.189 162.915L228.24 151.968C231.387 148.855 233.118 144.713 233.118 140.305C233.118 140.289 233.118 140.274 233.118 140.258C235.313 137.38 236.48 133.97 236.48 130.355V120.634C238.117 120.194 239.327 118.719 239.327 116.958L239.323 116.965ZM223.673 87.4073C223.673 87.511 223.666 87.6196 223.658 87.7191C223.666 87.6155 223.673 87.511 223.673 87.4073ZM215.998 87.1029C215.991 87.2033 215.983 87.3037 215.983 87.4073C215.983 87.511 215.991 87.6081 215.998 87.7076C215.991 87.6081 215.983 87.5077 215.983 87.4073C215.983 87.307 215.991 87.2033 215.998 87.1029ZM203.69 105.044C203.671 105.044 203.652 105.051 203.629 105.051C203.648 105.051 203.667 105.044 203.69 105.044ZM197.043 136.941C197.043 136.941 197.027 136.929 197.02 136.925C197.027 136.929 197.035 136.937 197.043 136.941ZM191.659 142.274C191.659 142.274 191.648 142.258 191.643 142.25C191.648 142.258 191.655 142.266 191.659 142.274ZM187.267 172.607C187.267 172.607 187.275 172.598 187.283 172.595C187.279 172.598 187.275 172.602 187.267 172.607Z" fill="url(#paint11_linear_2729_23028)"/>
<path d="M195.117 119.94L195.941 124.337L205.053 121.651L195.117 119.94Z" fill="white"/>
<path d="M204.655 113.444L201.221 115.278L209.234 120.487L204.655 113.444Z" fill="white"/>
<path d="M219.422 117.393L217.142 114.665L211.241 119.247" fill="white"/>
<path d="M204.173 112.627C202.054 112.627 200.326 110.916 200.326 108.816C200.326 106.716 202.054 105.005 204.173 105.005C206.293 105.005 208.021 106.712 208.021 108.816C208.021 110.92 206.293 112.627 204.173 112.627ZM204.173 106.99C203.154 106.99 202.325 107.811 202.325 108.816C202.325 109.821 203.154 110.642 204.173 110.642C205.193 110.642 206.018 109.821 206.018 108.816C206.018 107.811 205.189 106.99 204.173 106.99Z" fill="white"/>
<path d="M194.701 143.761C192.581 143.761 190.854 142.05 190.854 139.95C190.854 137.85 192.581 136.14 194.701 136.14C196.821 136.14 198.548 137.85 198.548 139.95C198.548 142.05 196.821 143.761 194.701 143.761ZM194.701 138.124C193.682 138.124 192.857 138.944 192.857 139.95C192.857 140.956 193.686 141.781 194.701 141.781C195.716 141.781 196.545 140.96 196.545 139.95C196.545 138.941 195.716 138.124 194.701 138.124Z" fill="white"/>
<path d="M235.48 120.773C233.36 120.773 231.633 119.062 231.633 116.961C231.633 114.862 233.36 113.151 235.48 113.151C237.6 113.151 239.327 114.862 239.327 116.961C239.327 119.062 237.6 120.773 235.48 120.773ZM235.48 115.135C234.461 115.135 233.632 115.956 233.632 116.961C233.632 117.967 234.461 118.792 235.48 118.792C236.499 118.792 237.323 117.972 237.323 116.961C237.323 115.952 236.495 115.135 235.48 115.135Z" fill="white"/>
<path d="M213.891 168.68C211.771 168.68 210.043 166.969 210.043 164.869C210.043 162.769 211.771 161.058 213.891 161.058C216.011 161.058 217.738 162.769 217.738 164.869C217.738 166.969 216.011 168.68 213.891 168.68ZM213.891 163.043C212.871 163.043 212.043 163.863 212.043 164.873C212.043 165.882 212.871 166.699 213.891 166.699C214.91 166.699 215.734 165.879 215.734 164.873C215.734 163.867 214.906 163.043 213.891 163.043Z" fill="white"/>
<path d="M219.826 91.2147C217.706 91.2147 215.979 89.5035 215.979 87.4032C215.979 85.3037 217.706 83.5967 219.826 83.5967C221.947 83.5967 223.673 85.3037 223.673 87.4073C223.673 89.5109 221.947 91.218 219.826 91.218V91.2147ZM219.826 85.5769C218.807 85.5769 217.979 86.3979 217.979 87.4032C217.979 88.4094 218.807 89.2337 219.826 89.2337C220.845 89.2337 221.67 88.4127 221.67 87.4032C221.67 86.3938 220.842 85.5769 219.826 85.5769Z" fill="white"/>
<path d="M217.15 90.1353L206.445 105.749C206.815 106.019 207.133 106.346 207.386 106.727L218.251 90.879C217.839 90.6939 217.469 90.4438 217.15 90.1353Z" fill="white"/>
<path d="M184.649 173.628C182.529 173.628 180.802 171.916 180.802 169.817C180.802 167.717 182.529 166.005 184.649 166.005C186.769 166.005 188.496 167.717 188.496 169.817C188.496 171.916 186.769 173.628 184.649 173.628ZM184.649 167.991C183.63 167.991 182.806 168.811 182.806 169.82C182.806 170.83 183.634 171.651 184.649 171.651C185.664 171.651 186.493 170.83 186.493 169.82C186.493 168.811 185.664 167.991 184.649 167.991Z" fill="white"/>
<path d="M188.336 168.749L210.564 166.772C210.335 166.383 210.175 165.948 210.101 165.485L187.68 167.481C187.975 167.856 188.201 168.283 188.336 168.749Z" fill="white"/>
<path d="M186.793 166.657L194.005 143.695C193.553 143.615 193.134 143.452 192.752 143.229L185.564 166.117C186.007 166.225 186.423 166.406 186.793 166.653V166.657Z" fill="white"/>
<path d="M205.177 102.912C205.177 96.1269 209.903 90.4167 216.267 88.8371C216.088 88.3937 215.983 87.9157 215.983 87.4114C215.983 87.2222 216.002 87.0412 216.029 86.8602C208.674 88.5673 203.177 95.1175 203.177 102.916V105.148C203.496 105.063 203.83 105.013 204.177 105.013C204.523 105.013 204.857 105.063 205.177 105.148V102.912Z" fill="white"/>
<path d="M223.627 86.8529C223.654 87.0339 223.673 87.2148 223.673 87.4032C223.673 87.9084 223.573 88.3896 223.389 88.8289C229.754 90.4093 234.476 96.1195 234.476 102.905V113.286C234.795 113.201 235.13 113.151 235.476 113.151C235.822 113.151 236.156 113.201 236.476 113.286V102.905C236.476 95.106 230.979 88.5558 223.623 86.8488L223.627 86.8529Z" fill="white"/>
<path d="M207.231 169.982C204.465 172.722 200.785 174.232 196.872 174.232C193.686 174.232 190.668 173.219 188.158 171.369C187.878 171.99 187.435 172.522 186.878 172.914C189.745 175.053 193.219 176.213 196.872 176.213C201.318 176.213 205.5 174.498 208.647 171.381L211.926 168.133C211.347 167.79 210.864 167.296 210.534 166.71L207.231 169.982Z" fill="white"/>
<path d="M192.78 143.248C192.192 142.914 191.705 142.427 191.367 141.846L185.096 148.057C179.907 153.194 178.869 160.908 181.973 167.085C182.455 166.622 183.059 166.283 183.735 166.121C181.051 160.7 181.966 153.96 186.509 149.456L192.775 143.248H192.78Z" fill="white"/>
<path d="M234.48 120.638V130.359C234.48 132.744 233.905 135.033 232.803 137.099C232.174 133.912 230.602 130.98 228.244 128.641C227.711 128.113 227.132 127.616 226.521 127.153V102.909C226.521 99.2564 223.522 96.2816 219.83 96.2816C216.139 96.2816 213.14 99.2564 213.14 102.909V111.07C213.14 111.617 213.587 112.061 214.139 112.061C214.691 112.061 215.139 111.617 215.139 111.07V102.909C215.139 100.346 217.244 98.2618 219.83 98.2618C222.417 98.2618 224.522 100.346 224.522 102.909V125.878C222.071 124.529 219.324 123.813 216.473 123.813C216.03 123.813 215.586 123.832 215.143 123.867V123.011C215.143 122.464 214.695 122.021 214.143 122.021C213.591 122.021 213.143 122.464 213.143 123.011V130.359C213.143 132.325 214.022 134.178 215.551 135.445C216.73 136.42 218.22 136.968 219.752 136.987C219.765 136.998 219.779 137.014 219.792 137.026C220.678 137.904 221.165 139.068 221.165 140.308C221.165 141.55 220.678 142.717 219.792 143.591L218.555 144.816C214.808 144.497 211.381 142.782 208.861 139.962C206.534 137.357 205.227 134.008 205.184 130.54C205.184 130.54 205.184 130.54 205.184 130.536V123.412C205.18 122.865 204.733 122.421 204.181 122.421C203.629 122.421 203.181 122.865 203.181 123.412V130.151L196.615 136.651C197.202 136.987 197.692 137.468 198.03 138.051L203.36 132.772C203.784 135.607 204.951 138.297 206.756 140.563L192.146 155.036C190.885 156.284 190.188 157.949 190.188 159.721C190.188 161.494 190.885 163.158 192.146 164.407C193.41 165.659 195.09 166.348 196.876 166.348C198.661 166.348 200.342 165.659 201.606 164.407L221.203 144.994C222.467 143.742 223.164 142.077 223.164 140.308C223.164 138.54 222.467 136.875 221.203 135.623C221.059 135.481 220.912 135.349 220.76 135.222C219.585 134.247 218.095 133.704 216.563 133.681C215.657 132.806 215.143 131.616 215.143 130.359V125.851C218.636 125.543 222.106 126.464 224.942 128.464C225.622 128.945 226.257 129.473 226.832 130.044C229.509 132.694 231.03 136.22 231.115 139.973L231.123 140.308C231.123 144.185 229.598 147.83 226.832 150.569L215.761 161.536C216.353 161.863 216.847 162.341 217.197 162.915L228.249 151.968C231.395 148.851 233.126 144.713 233.126 140.305C233.126 140.289 233.126 140.274 233.126 140.258C235.32 137.38 236.487 133.97 236.487 130.355V120.634C236.168 120.718 235.834 120.769 235.487 120.769C235.142 120.769 234.807 120.718 234.488 120.634L234.48 120.638ZM200.186 163.004C199.299 163.883 198.124 164.364 196.872 164.364C195.619 164.364 194.44 163.883 193.553 163.004C192.671 162.13 192.184 160.962 192.184 159.717C192.184 158.473 192.671 157.309 193.553 156.434L208.086 142.038C210.479 144.408 213.486 145.969 216.777 146.57L200.186 163.004Z" fill="white"/>
<path d="M230.75 137.099C230.555 136.247 230.29 135.415 229.948 134.617L215.263 129.57C215.22 129.554 215.178 129.558 215.135 129.554V130.359C215.135 130.556 215.15 130.749 215.178 130.941L229.855 135.985L215.299 161.328C215.493 161.405 215.676 161.497 215.855 161.606C215.82 161.586 215.788 161.559 215.754 161.54L217.978 159.339L230.75 137.102V137.099Z" fill="white"/>
<path d="M219.783 137.026C219.783 137.026 219.756 136.999 219.745 136.987C219.55 136.987 219.359 136.975 219.165 136.957L214.501 143.025L205.177 125.774V128.575L213.116 143.256C213.82 143.619 214.551 143.912 215.306 144.154L220.308 137.65C220.153 137.43 219.978 137.218 219.783 137.026Z" fill="white"/>
<path d="M232.839 114.203L226.517 108.654V110.419L232.041 115.27C232.244 114.869 232.512 114.511 232.839 114.207V114.203Z" fill="white"/>
<path d="M232.644 119.532L227.556 128.016C227.789 128.225 228.023 128.433 228.24 128.648C228.346 128.753 228.439 128.861 228.54 128.964L233.71 120.345C233.31 120.137 232.952 119.863 232.648 119.532H232.644Z" fill="white"/>
</g>
<defs>
<radialGradient id="paint0_radial_2729_23028" cx="0" cy="0" r="1" gradientUnits="userSpaceOnUse" gradientTransform="translate(199.949 199.604) rotate(90) scale(199.379 199.467)">
<stop stop-color="#6619D0"/>
<stop offset="1" stop-color="#6619D0" stop-opacity="0"/>
</radialGradient>
<linearGradient id="paint1_linear_2729_23028" x1="127.932" y1="187.731" x2="127.932" y2="352.267" gradientUnits="userSpaceOnUse">
<stop stop-color="#00B775"/>
<stop offset="1" stop-color="#00B775" stop-opacity="0.1"/>
</linearGradient>
<linearGradient id="paint2_linear_2729_23028" x1="293.026" y1="188.032" x2="293.026" y2="352.941" gradientUnits="userSpaceOnUse">
<stop stop-color="#00BEB4"/>
<stop offset="1" stop-color="#00BEB4" stop-opacity="0"/>
</linearGradient>
<linearGradient id="paint3_linear_2729_23028" x1="209.346" y1="47.7106" x2="209.346" y2="212.62" gradientUnits="userSpaceOnUse">
<stop stop-color="#009C1A"/>
<stop offset="1" stop-color="#009C1A" stop-opacity="0"/>
</linearGradient>
<linearGradient id="paint4_linear_2729_23028" x1="453.047" y1="-512.79" x2="129.218" y2="479.915" gradientUnits="userSpaceOnUse">
<stop stop-color="#00E09E"/>
<stop offset="1" stop-color="#008480" stop-opacity="0"/>
</linearGradient>
<linearGradient id="paint5_linear_2729_23028" x1="293.176" y1="133.162" x2="293.176" y2="1270.95" gradientUnits="userSpaceOnUse">
<stop stop-color="#00E09E"/>
<stop offset="1" stop-color="#008480" stop-opacity="0"/>
</linearGradient>
<linearGradient id="paint6_linear_2729_23028" x1="293.176" y1="207.105" x2="293.176" y2="1270.61" gradientUnits="userSpaceOnUse">
<stop stop-color="#07C7C2"/>
<stop offset="1" stop-color="#07C7C2" stop-opacity="0"/>
</linearGradient>
<linearGradient id="paint7_linear_2729_23028" x1="293.176" y1="-543.069" x2="293.176" y2="520.43" gradientUnits="userSpaceOnUse">
<stop stop-color="#07C7C2"/>
<stop offset="1" stop-color="#07C7C2" stop-opacity="0"/>
</linearGradient>
<linearGradient id="paint8_linear_2729_23028" x1="293.172" y1="230.445" x2="293.172" y2="326.156" gradientUnits="userSpaceOnUse">
<stop stop-color="#07C7C2"/>
<stop offset="1" stop-color="#07C7C2" stop-opacity="0"/>
</linearGradient>
<linearGradient id="paint9_linear_2729_23028" x1="128.074" y1="235.715" x2="128.074" y2="310.625" gradientUnits="userSpaceOnUse">
<stop stop-color="#00B775"/>
<stop offset="1" stop-color="#00B775" stop-opacity="0"/>
</linearGradient>
<linearGradient id="paint10_linear_2729_23028" x1="209.778" y1="75.4662" x2="209.778" y2="143.869" gradientUnits="userSpaceOnUse">
<stop stop-color="#00B600"/>
<stop offset="1" stop-color="#006E2E" stop-opacity="0"/>
</linearGradient>
<linearGradient id="paint11_linear_2729_23028" x1="209.778" y1="183.553" x2="209.778" y2="122.542" gradientUnits="userSpaceOnUse">
<stop stop-color="#00B600"/>
<stop offset="1" stop-color="#00B600" stop-opacity="0"/>
</linearGradient>
<clipPath id="clip0_2729_23028">
<rect width="400" height="399" fill="white"/>
</clipPath>
</defs>
</svg>
